<svg width="33" height="33" viewBox="0 0 33 33" fill="none" xmlns="http://www.w3.org/2000/svg">
<path d="M16.498 8.2171C14.3008 8.2171 12.1936 9.08995 10.6399 10.6436C9.08623 12.1973 8.21338 14.3045 8.21338 16.5018C8.21338 18.699 9.08623 20.8062 10.6399 22.3599C12.1936 23.9136 14.3008 24.7864 16.498 24.7864C18.6953 24.7864 20.8025 23.9136 22.3562 22.3599C23.9099 20.8062 24.7827 18.699 24.7827 16.5018C24.7827 14.3045 23.9099 12.1973 22.3562 10.6436C20.8025 9.08995 18.6953 8.2171 16.498 8.2171ZM16.498 21.8821C15.0706 21.8821 13.7016 21.3151 12.6923 20.3057C11.6829 19.2964 11.1159 17.9274 11.1159 16.5C11.1159 15.0725 11.6829 13.7036 12.6923 12.6942C13.7016 11.6849 15.0706 11.1178 16.498 11.1178C17.9255 11.1178 19.2945 11.6849 20.3038 12.6942C21.3132 13.7036 21.8802 15.0725 21.8802 16.5C21.8802 17.9274 21.3132 19.2964 20.3038 20.3057C19.2945 21.3151 17.9255 21.8821 16.498 21.8821Z" fill="white"/>
<path d="M25.1106 9.84397C26.1773 9.84397 27.042 8.97925 27.042 7.91256C27.042 6.84586 26.1773 5.98114 25.1106 5.98114C24.0439 5.98114 23.1792 6.84586 23.1792 7.91256C23.1792 8.97925 24.0439 9.84397 25.1106 9.84397Z" fill="white"/>
<path d="M31.7881 5.94889C31.3734 4.8778 30.7395 3.9051 29.9272 3.09308C29.1148 2.28105 28.1419 1.64758 27.0707 1.23322C25.8171 0.762653 24.4928 0.508208 23.1541 0.480722C21.4287 0.405472 20.8822 0.383972 16.507 0.383972C12.1318 0.383972 11.571 0.383972 9.85992 0.480722C8.52224 0.506803 7.19886 0.7613 5.94692 1.23322C4.87539 1.6471 3.9022 2.2804 3.08981 3.09249C2.27741 3.90457 1.64374 4.87751 1.22946 5.94889C0.758797 7.20236 0.504936 8.5268 0.478751 9.86547C0.40171 11.5891 0.378418 12.1355 0.378418 16.5126C0.378418 20.8878 0.378418 21.445 0.478751 23.1596C0.505626 24.4998 0.758251 25.8221 1.22946 27.078C1.64491 28.149 2.27919 29.1216 3.09178 29.9335C3.90437 30.7455 4.87741 31.379 5.94871 31.7937C7.19828 32.2832 8.52221 32.5558 9.8635 32.5999C11.5889 32.6752 12.1353 32.6985 16.5106 32.6985C20.8858 32.6985 21.4466 32.6985 23.1577 32.5999C24.4962 32.5727 25.8205 32.3189 27.0743 31.8492C28.1452 31.4339 29.1179 30.7999 29.9301 29.9876C30.7424 29.1754 31.3764 28.2027 31.7917 27.1318C32.2629 25.8776 32.5155 24.5553 32.5424 23.2152C32.6195 21.4916 32.6427 20.9451 32.6427 16.5681C32.6427 12.1911 32.6427 11.6356 32.5424 9.92101C32.5216 8.56342 32.2664 7.21963 31.7881 5.94889ZM29.6059 23.0271C29.5943 24.0596 29.4059 25.0825 29.0487 26.0514C28.7796 26.7481 28.3677 27.3808 27.8394 27.9088C27.3111 28.4367 26.6782 28.8483 25.9813 29.1169C25.0232 29.4725 24.0111 29.661 22.9893 29.6741C21.2872 29.753 20.807 29.7727 16.4425 29.7727C12.0744 29.7727 11.6283 29.7727 9.89396 29.6741C8.87258 29.6616 7.861 29.4731 6.90367 29.1169C6.20436 28.8499 5.56888 28.4391 5.03835 27.9111C4.50781 27.383 4.09404 26.7494 3.82379 26.0514C3.47163 25.0929 3.28327 24.0821 3.26658 23.0611C3.18954 21.359 3.17163 20.8788 3.17163 16.5143C3.17163 12.1481 3.17163 11.7019 3.26658 9.9658C3.27817 8.93385 3.46663 7.91151 3.82379 6.94326C4.37025 5.52964 5.49004 4.41701 6.90367 3.87593C7.86147 3.52143 8.87275 3.33299 9.89396 3.31872C11.5978 3.24168 12.0762 3.22018 16.4425 3.22018C20.8088 3.22018 21.2567 3.22018 22.9893 3.31872C24.0112 3.33102 25.0234 3.51952 25.9813 3.87593C26.6782 4.14517 27.311 4.55713 27.8392 5.08536C28.3675 5.61359 28.7794 6.24643 29.0487 6.94326C29.4008 7.90171 29.5892 8.91259 29.6059 9.93356C29.6829 11.6374 29.7026 12.1158 29.7026 16.4821C29.7026 20.8466 29.7026 21.316 29.6256 23.0288H29.6059V23.0271Z" fill="white"/>
</svg>
