<svg width="35" height="35" viewBox="0 0 35 35" fill="none" xmlns="http://www.w3.org/2000/svg">
<g clip-path="url(#clip0_171_193)">
<path d="M18.6266 2.22906C18.2517 2.20139 17.8759 2.18752 17.5 2.1875V0C17.9299 0.000209623 18.3597 0.0162622 18.7884 0.048125L18.6266 2.22906ZM23.0103 3.21344C22.3091 2.94283 21.5889 2.72422 20.8556 2.55937L21.3347 0.424375C22.1747 0.6125 22.9957 0.861875 23.7978 1.1725L23.0103 3.21344ZM26.0072 4.76656C25.6944 4.55797 25.3741 4.36096 25.0469 4.17594L26.1253 2.27281C26.8733 2.69644 27.5891 3.17461 28.2669 3.70344L26.9216 5.42938C26.625 5.19801 26.32 4.97765 26.0072 4.76875V4.76656ZM30.0191 8.68219C29.5863 8.06749 29.1089 7.4855 28.5906 6.94094L30.1744 5.43156C30.7665 6.05719 31.3111 6.72073 31.8084 7.42219L30.0191 8.68219ZM31.6466 11.6397C31.5031 11.2928 31.347 10.9513 31.1784 10.6159L33.1319 9.63156C33.518 10.3996 33.847 11.1951 34.1162 12.0116L32.0381 12.6962C31.9206 12.3394 31.79 11.987 31.6466 11.6397ZM32.8059 17.1238C32.7882 16.372 32.7151 15.6226 32.5872 14.8816L34.7419 14.5097C34.8877 15.3555 34.9723 16.2086 34.9956 17.0691L32.8059 17.1238ZM32.5194 20.4881C32.5923 20.1177 32.6514 19.7458 32.6966 19.3725L34.8687 19.6416C34.7633 20.495 34.5952 21.3394 34.3656 22.1681L32.2569 21.5841C32.3575 21.2239 32.445 20.8585 32.5194 20.4881ZM30.4369 25.6922C30.8394 25.0564 31.1937 24.3943 31.5 23.7059L33.4994 24.5919C33.1494 25.3794 32.7447 26.1362 32.2853 26.8625L30.4369 25.6922ZM28.3281 28.3281C28.595 28.0612 28.8502 27.7856 29.0938 27.5012L30.7519 28.9297C30.4712 29.2554 30.1786 29.5706 29.8747 29.8747L28.3281 28.3281Z" fill="black"/>
<path d="M17.5 2.1875C14.9819 2.18768 12.5028 2.80885 10.2821 3.99599C8.0614 5.18313 6.16775 6.8996 4.76887 8.99336C3.36999 11.0871 2.50905 13.4936 2.2623 15.9995C2.01555 18.5055 2.39061 21.0336 3.35426 23.36C4.31791 25.6864 5.84041 27.7392 7.7869 29.3367C9.73339 30.9341 12.0438 32.0269 14.5135 32.5182C16.9832 33.0095 19.5359 32.8842 21.9456 32.1533C24.3552 31.4224 26.5475 30.1086 28.3281 28.3281L29.8747 29.8747C27.8397 31.9108 25.334 33.4135 22.5795 34.2497C19.8249 35.0859 16.9067 35.2298 14.0833 34.6686C11.2598 34.1074 8.61843 32.8584 6.39307 31.0324C4.16771 29.2063 2.42711 26.8596 1.32548 24.2001C0.223852 21.5405 -0.204783 18.6504 0.0775532 15.7856C0.359889 12.9208 1.34448 10.1699 2.94408 7.7766C4.54369 5.3833 6.70892 3.42149 9.24793 2.06501C11.7869 0.708521 14.6213 -0.000762852 17.5 6.1569e-07V2.1875Z" fill="black"/>
<path d="M16.4062 6.5625C16.6963 6.5625 16.9745 6.67773 17.1796 6.88285C17.3848 7.08797 17.5 7.36617 17.5 7.65625V19.0531L24.605 23.1131C24.8495 23.2607 25.0267 23.498 25.0986 23.7744C25.1705 24.0508 25.1314 24.3443 24.9897 24.5923C24.848 24.8403 24.6149 25.023 24.3403 25.1014C24.0657 25.1798 23.7713 25.1477 23.52 25.0119L15.8637 20.6369C15.6963 20.5413 15.5572 20.4031 15.4604 20.2364C15.3636 20.0696 15.3126 19.8803 15.3125 19.6875V7.65625C15.3125 7.36617 15.4277 7.08797 15.6329 6.88285C15.838 6.67773 16.1162 6.5625 16.4062 6.5625Z" fill="black"/>
</g>
<defs>
<clipPath id="clip0_171_193">
<rect width="35" height="35" fill="white"/>
</clipPath>
</defs>
</svg>
