<svg width="32" height="25" viewBox="0 0 32 25" fill="none" xmlns="http://www.w3.org/2000/svg">
<path d="M13.0783 13.6065L13.2573 13.7935L13.6543 14.2354L14.0063 14.7038L14.3164 15.2023L14.5786 15.7215L14.7062 16.0266L14.8184 16.3374L14.9148 16.6526L14.9952 16.9713L15.0597 17.2943L15.1075 17.6195L15.1386 17.9468L15.1539 18.2762L15.1531 18.6057L15.1357 18.9359L15.101 19.266L15.051 19.5955L14.9843 19.9199L14.9017 20.2422L14.8025 20.5631L14.6866 20.8804L14.5721 21.1518L14.4417 21.419L14.2968 21.6811L14.1367 21.9396L13.9614 22.1932L13.7709 22.4431L13.3449 22.9287L13.1044 23.1665L12.8523 23.3907L12.5843 23.6048L12.3054 23.8032L12.0163 23.9873L11.7186 24.1563L11.4063 24.3132L11.0854 24.4542L10.755 24.5803L10.4182 24.6899L10.0755 24.783L9.72852 24.8596L9.37426 24.9205L9.01711 24.9642L8.65707 24.9907L8.2963 25L0.162276 24.9978L0.0927283 24.9878L0.0427417 24.9585L0.0130416 24.909L0.00289838 24.8403V11.7401L0.0188362 11.6921L0.0673747 11.6764H1.46772L1.50829 11.6928L1.52495 11.7329V23.4179L1.54741 23.4752L1.60319 23.5024L2.07407 23.5332L2.58988 23.5454L3.97573 23.5196L5.31667 23.4931L7.99131 23.4967L8.83311 23.4752L9.16418 23.4487L9.43512 23.4122L9.72852 23.3527L10.0154 23.2775L10.2943 23.1866L10.5674 23.0791L10.9753 22.8822L11.3665 22.6465L11.7417 22.3729L12.0996 22.0614L12.3988 21.7549L12.6661 21.429L12.9023 21.0859L13.1066 20.7257L13.3116 20.2644L13.4674 19.7803L13.5731 19.2761L13.6282 18.7532L13.6383 18.4223L13.6311 18.0986L13.6072 17.7813L13.5659 17.4719L13.5079 17.169L13.4326 16.8739L13.3406 16.5853L13.2312 16.3038L13.0928 16.0058L12.9342 15.7165L12.756 15.435L12.5567 15.1622L12.3706 14.9373L12.1713 14.7238L11.9554 14.5176L11.728 14.3235L11.4875 14.1408L11.2368 13.9711L10.9702 13.8107L10.6956 13.6646L10.6551 13.6366L10.6406 13.608L10.6515 13.5765L10.6884 13.5442L10.8478 13.4397L11.3259 13.1167L11.6599 12.8502L11.941 12.5831L12.1952 12.3009L12.4234 12.0037L12.6248 11.6907L12.8291 11.3032L12.9957 10.895L13.1269 10.4652L13.221 10.0148L13.2471 9.79703L13.2623 9.53489L13.2565 8.87455L13.2363 8.56013L13.2022 8.26864L13.1529 8.00077L13.0892 7.75583L12.9921 7.4672L12.8798 7.18644L12.7523 6.915L12.6096 6.65287L12.4517 6.39718L12.2793 6.15295L12.0938 5.91947L11.8953 5.69744L11.6838 5.48831L11.4614 5.29279L11.2274 5.11015L10.9825 4.94184L10.7304 4.79001L10.4696 4.65393L10.1994 4.53289L9.92049 4.42761L9.49597 4.3037L9.05551 4.21776L8.4919 4.17264L7.61025 4.15759L1.57638 4.15831L1.54016 4.17335L1.52495 4.20916V10.5541L1.51336 10.5899L1.47569 10.6028L0.202845 10.6013L0.115186 10.5956L0.063026 10.5784L0.0173881 10.5319L0.00289838 10.4695L0 8.74563L0.00362353 5.55922L0.0492637 3.23655L0.0478134 3.01452L0.026081 2.8233L0.0253559 2.81542L0.0297023 2.77889L0.0485385 2.74738L0.0789638 2.72661L0.115186 2.71873L4.37273 2.72374L5.56878 2.69008L6.76121 2.65212L7.64575 2.64783L8.42525 2.67719L9.09536 2.74022L9.41338 2.78964L9.72634 2.85409L10.0328 2.93216L10.3327 3.02527L10.7413 3.17782L11.1361 3.35687L11.5244 3.56457L11.8975 3.79806L12.259 4.05804L12.6038 4.34166L12.932 4.6482L13.2435 4.97765L13.4884 5.28992L13.7368 5.60577L13.776 5.63872L13.8173 5.65304L13.8607 5.64803L13.9064 5.62511L14.433 5.28491L14.9735 4.98052L15.5284 4.71337L16.0964 4.48204L16.4571 4.3567L16.8237 4.24569L17.1953 4.149L17.572 4.06592L17.9705 3.9943L18.3747 3.937L18.7848 3.89403L19.2013 3.86538L19.6237 3.85106L20.0518 3.85034L20.9269 3.89331L21.4051 3.94273L21.8738 4.01435L22.3331 4.10818L22.7822 4.22349L22.8612 4.23208L22.9177 4.2199L22.9735 4.19197L23.08 4.08884L25.488 0.921761L25.5786 0.849423L25.7191 0.807884L27.9228 0.446914L29.9194 0.104566L30.6199 0L30.667 0.00214854L30.7098 0.0207707L30.7431 0.0537157L30.7619 0.0959718L31.2792 2.19446L31.979 4.94471L32 5.05071L31.9971 5.12662L31.9717 5.19538L31.9218 5.27058L30.7163 6.82977L29.271 8.76067L29.2667 8.7664L29.2297 8.86381L29.2341 8.98843L29.229 9.02639L29.2044 9.05503L26.119 11.0318L26.0632 11.0418L26.0168 11.011L25.7531 10.6479L25.4721 10.3027L25.1736 9.97608L24.8577 9.66811L24.4622 9.32719L24.0427 9.01135L23.5979 8.72128L23.1299 8.457L22.901 8.34384L22.6221 8.22423L22.3244 8.11537L21.9947 8.01295L21.6122 7.90982L21.0356 7.78878L20.4481 7.71501L19.8634 7.68994L19.2788 7.71286L18.7109 7.78376L18.1516 7.90337L17.6119 8.07096L17.1019 8.28153L16.3072 8.66542L16.2963 8.66971L16.2557 8.67544L16.2166 8.66327L16.1862 8.63677L16.1688 8.60024L15.887 7.36908L15.8921 7.31894L15.9276 7.2817L16.2789 7.10551L16.6353 6.9458L16.9976 6.80327L17.3641 6.67793L17.7358 6.56979L18.1117 6.47883L18.4914 6.40578L18.8739 6.35063L19.3085 6.30909L19.7468 6.29118L20.188 6.2962L20.6306 6.32484L21.2334 6.39933L21.8209 6.51177L22.3932 6.66218L22.9517 6.85126L23.4871 7.07472L24.0087 7.33541L24.5158 7.63336L25.0084 7.96854L25.3083 8.2006L25.6068 8.45986L25.9256 8.7621L26.3508 9.19183L26.387 9.21833L26.4305 9.23122L26.4761 9.22836L26.5174 9.21117L27.1542 8.80293L27.2288 8.73847L27.2593 8.669L27.2455 8.59451L27.1883 8.51501L26.7217 8.04446L26.3378 7.68206L25.9835 7.37624L25.6372 7.11053L25.1801 6.80041L24.7092 6.51822L24.2188 6.26039L23.7167 6.03191L23.3589 5.88939L22.9967 5.76119L22.6294 5.64659L22.2584 5.54704L21.8839 5.46181L21.5065 5.39091L21.1254 5.33504L20.7422 5.2935L20.3575 5.26629L19.9707 5.25483L19.5831 5.25698L19.1948 5.27488L18.8094 5.30711L18.424 5.35366L18.0386 5.41526L17.6546 5.49189L17.2453 5.59431L16.8382 5.72036L16.426 5.8722L16.0196 6.04624L15.611 6.24535L15.2147 6.46379L14.8264 6.70229L14.4548 6.95654L14.4207 7.00309L14.4214 7.06039L14.5417 7.45431L14.6373 7.85538L14.7083 8.26219L14.754 8.67258L14.7742 9.08511L14.7692 9.49837L14.7387 9.91019L14.683 10.3191L14.6018 10.7174L14.4961 11.1098L14.3671 11.4873L14.2143 11.8554L14.0404 12.2042L13.8426 12.5415L13.6253 12.8595L13.3848 13.1639L13.0762 13.5457L13.0682 13.58L13.0783 13.6065ZM29.6941 1.4804L29.4463 1.50905L27.2969 1.84496L26.9695 1.90368L26.5399 1.99966L26.4348 2.0326L26.3494 2.07844L26.2784 2.13645L26.2139 2.21165L25.2656 3.46287L24.3861 4.59806L24.355 4.65249L24.3514 4.70048L24.376 4.74131L24.4289 4.7764L24.9027 5.01203L25.3641 5.26557L25.8133 5.5363L26.2494 5.82421L26.9123 6.3141L27.5447 6.84768L27.8924 7.19575L28.2293 7.60328L28.2474 7.62405L28.3075 7.66988L28.3408 7.6749L28.3698 7.65699L29.4217 6.30264L30.4468 4.94614L30.4801 4.89028L30.5026 4.81722L30.5077 4.72626L30.4635 4.48705L30.4555 4.45411L29.7441 1.51621L29.726 1.489L29.6941 1.4804Z" fill="#D80004"/>
<path d="M29 4L28.9954 4.09786L28.9807 4.1953L28.9567 4.29021L28.924 4.38261L28.882 4.47123L28.8316 4.55565L28.7732 4.63419L28.7073 4.70727L28.6342 4.7732L28.5556 4.83158L28.4712 4.88198L28.3826 4.92398L28.2902 4.95674L28.1953 4.98068L28.0979 4.99538L28 5L27.9021 4.99538L27.8047 4.98068L27.7098 4.95674L27.6174 4.92398L27.5288 4.88198L27.4444 4.83158L27.3658 4.7732L27.2927 4.70727L27.2268 4.63419L27.1684 4.55565L27.118 4.47123L27.076 4.38261L27.0433 4.29021L27.0193 4.1953L27.0046 4.09786L27 4L27.0046 3.90214L27.0193 3.8047L27.0433 3.70979L27.076 3.61739L27.118 3.52877L27.1684 3.44435L27.2268 3.36581L27.2927 3.29273L27.3658 3.2268L27.4444 3.16842L27.5288 3.11802L27.6174 3.07602L27.7098 3.04326L27.8047 3.01932L27.9021 3.00462L28 3L28.0979 3.00462L28.1953 3.01932L28.2902 3.04326L28.3826 3.07602L28.4712 3.11802L28.5556 3.16842L28.6342 3.2268L28.7073 3.29273L28.7732 3.36581L28.8316 3.44435L28.882 3.52877L28.924 3.61739L28.9567 3.70979L28.9807 3.8047L28.9954 3.90214L29 4ZM28.6039 3.99916L28.5922 3.88114L28.5578 3.76732L28.5019 3.66275L28.4267 3.57077L28.3347 3.49559L28.2302 3.43973L28.1163 3.40529L27.9983 3.39353L27.8803 3.40529L27.7665 3.43973L27.6619 3.49559L27.5699 3.57077L27.4947 3.66275L27.4389 3.76732L27.4045 3.88114L27.3927 3.99916L27.4045 4.11718L27.4389 4.231L27.4947 4.33557L27.5699 4.42755L27.6619 4.50273L27.7665 4.55859L27.8803 4.59303L27.9983 4.60479L28.1163 4.59303L28.2302 4.55859L28.3347 4.50273L28.4267 4.42755L28.5019 4.33557L28.5578 4.231L28.5922 4.11718L28.6039 3.99916Z" fill="#D80004"/>
<path d="M4.34793 13.3499L4.36892 13.402L4.35843 13.4308L4.34597 13.4635L4.3499 13.4996L4.37352 13.62V13.7811L4.36433 13.9281L4.32694 14.6167L4.31514 15.1408L4.31448 20.2486L4.33416 20.5394L4.34597 20.5768L4.37024 20.6082L4.40303 20.629L4.44042 20.637L4.74215 20.6437L5.19999 20.6269L6.54464 20.5842H7.47081L8.0559 20.6056L8.34057 20.6062L8.61475 20.5808L8.88368 20.528L9.13818 20.4491L9.37891 20.3449L9.60324 20.2158L9.80985 20.0634L9.99679 19.8883L10.1155 19.7539L10.2231 19.6095L10.3202 19.4551L10.4061 19.2913L10.4789 19.1215L10.5399 18.9437L10.5884 18.7572L10.6252 18.5627L10.6553 18.2686L10.6547 17.9838L10.6232 17.7084L10.5609 17.443L10.4887 17.2378L10.3976 17.0386L10.2867 16.846L10.1562 16.6589L9.9981 16.473L9.821 16.3059L9.62291 16.1542L9.40974 16.0245L9.1841 15.9162L8.94927 15.832L8.70789 15.7718L8.46192 15.737L7.98375 15.7083L7.46097 15.7003L5.34691 15.7023L5.31281 15.6876L5.29837 15.6528V14.501L5.3069 14.4402L5.33248 14.3974L5.37446 14.3707L5.43415 14.362L8.31368 14.3613L8.55637 14.3707L8.85285 14.4054L9.14212 14.4636L9.43073 14.5471L9.71015 14.6541L9.98236 14.7851L10.2428 14.9375L10.4907 15.11L10.7236 15.3019L10.9413 15.5118L11.142 15.739L11.325 15.9824L11.4884 16.2404L11.6301 16.5085L11.7507 16.7892L11.8465 17.0747L11.92 17.3701L11.9797 17.7605L12 18.0941L11.9941 18.421L11.962 18.7459L11.9042 19.0614L11.8216 19.3682L11.7153 19.663L11.5828 19.9518L11.4267 20.2259L11.1939 20.5554L10.9269 20.8569L10.6271 21.1283L10.2966 21.367L9.94235 21.5688L9.56257 21.7339L9.16573 21.8583L8.74856 21.9438L8.27367 21.9906L7.7076 22L5.79885 21.988L3.06363 21.9967L3.01902 21.9779L3 21.9325V12.0056V12.0023L3.02755 11.9441L3.08789 11.9234L3.69266 11.9541L7.36258 11.9588L8.15691 11.9314L8.41076 11.902L8.65673 11.8478L8.89286 11.769L9.11719 11.6667L9.32774 11.5417L9.52387 11.3946L9.70228 11.2262L9.86233 11.0376L9.97515 10.8745L10.0735 10.7001L10.1549 10.5202L10.2224 10.3297L10.288 10.069L10.3254 9.80631L10.3346 9.5436L10.3156 9.28423L10.2677 9.03154L10.1923 8.78755L10.0912 8.5596L9.96334 8.34368L9.85839 8.20263L9.74098 8.0696L9.50222 7.85235L9.23985 7.67453L8.94534 7.53415L8.62 7.43589L8.25399 7.37573L7.83813 7.35233L6.15502 7.34431L4.22659 7.35567L3.7248 7.37238L3.07084 7.4145H3.06822L3.02033 7.39578L3 7.34698V6.04546L3.01115 6.01872L3.03739 6.00735L8.02835 6L8.42781 6.01604L8.81087 6.07086L9.17754 6.16311L9.52912 6.29413L9.81707 6.43652L10.0932 6.60631L10.3582 6.80485L10.6107 7.03079L10.8174 7.24871L11.001 7.47867L11.1624 7.71999L11.3001 7.97267L11.4031 8.20464L11.4877 8.44529L11.5579 8.69864L11.6104 8.952L11.6465 9.2107L11.6648 9.46739L11.6668 9.72275L11.6517 9.97476L11.6189 10.2295L11.5697 10.4788L11.5028 10.7261L11.4202 10.9668L11.3211 11.2008L11.207 11.426L11.0778 11.6426L10.9335 11.8492L10.776 12.0457L10.6042 12.2309L10.3969 12.4234L10.1739 12.5999L9.94104 12.7563L9.69441 12.8947L9.43729 13.0137L9.1677 13.1133L8.89221 13.1915L8.60622 13.2496L8.39108 13.2744L8.10116 13.2917L7.29699 13.3011L5.45777 13.2944L4.36696 13.3058L4.33416 13.3178L4.34793 13.3499Z" fill="#D80004"/>
<path d="M20.3121 8.6068L19.7256 8.60373C19.6835 8.60351 19.6492 8.63745 19.649 8.67955L19.6433 9.76975C19.6431 9.81184 19.677 9.84614 19.7191 9.84636L20.3056 9.84943C20.3477 9.84965 20.382 9.81571 20.3822 9.77362L20.3879 8.68341C20.3881 8.64132 20.3542 8.60702 20.3121 8.6068Z" fill="white"/>
<path d="M20.3121 19.0035L19.7256 19.0004C19.6835 19.0002 19.6492 19.0341 19.649 19.0762L19.6433 20.1664C19.6431 20.2085 19.677 20.2428 19.7191 20.243L20.3056 20.2461C20.3477 20.2463 20.382 20.2124 20.3822 20.1703L20.3879 19.0801C20.3881 19.038 20.3542 19.0037 20.3121 19.0035Z" fill="white"/>
<path d="M19.415 14.9851L19.3344 14.9406L19.3153 14.9212L19.1697 14.6431L19.0764 14.3649L19.0438 14.1102L19.0495 13.9921L19.07 13.8749L19.1244 13.7059L19.2015 13.5418L19.2941 13.3954L19.4037 13.2652L19.5182 13.1617L19.6448 13.0809L19.7727 13.0283L19.9084 13.0024L20.071 13L20.2216 13.021L20.3609 13.0655L20.4889 13.1334L20.6288 13.2458L20.7519 13.393L20.8579 13.5741L20.947 13.7892L20.9866 13.9452L21 14.1053L20.9873 14.2703L20.9484 14.4417L20.8834 14.6188L20.8431 14.7013L20.7448 14.8476L20.6204 14.9754L20.4698 15.0846L20.2923 15.1751L20.141 15.2091L19.912 15.2083L19.7791 15.2034L19.7218 15.222L19.6815 15.2722L17.6681 19.983L17.6504 20L17.6278 19.9976L17.6257 19.996L17.0198 19.5165L17 19.4865L17.0078 19.4502L18.187 17.3203L19.4525 15.1468L19.4673 15.1048L19.4666 15.0603L19.4503 15.0191L19.4213 14.9891L19.415 14.9851Z" fill="white"/>
<path d="M16.1001 13.9875L14.9417 13.9814C14.9004 13.9812 14.8668 14.0145 14.8666 14.0558L14.8635 14.6321C14.8633 14.6734 14.8966 14.7071 14.9379 14.7073L16.0963 14.7133C16.1376 14.7136 16.1713 14.6803 16.1715 14.639L16.1745 14.0627C16.1747 14.0214 16.1414 13.9877 16.1001 13.9875Z" fill="white"/>
<path d="M25.2371 13.9875L24.0787 13.9814C24.0374 13.9812 24.0037 14.0145 24.0035 14.0558L24.0005 14.6321C24.0003 14.6734 24.0336 14.7071 24.0749 14.7073L25.2333 14.7133C25.2746 14.7136 25.3082 14.6803 25.3084 14.639L25.3115 14.0627C25.3117 14.0214 25.2784 13.9877 25.2371 13.9875Z" fill="white"/>
<path d="M26.9692 20.3534L26.8047 20.2027L26.6256 20.0647L26.4327 19.9402L26.2251 19.8284L26.1682 19.8227L26.1203 19.8545L25.8899 20.1312L25.6137 20.4036L25.2812 20.6845L24.8273 21.0291L24.4129 21.3136L23.9791 21.5704L23.5231 21.8025L23.0539 22.0041L22.5743 22.1754L22.0892 22.3141L21.6006 22.4195L21.1119 22.4902L20.7489 22.52L20.3485 22.5334L19.9105 22.5313L19.4351 22.5122L19.054 22.4796L18.6591 22.4209L18.267 22.3402L17.8644 22.2334L17.4632 22.1046L17.0558 21.9511L16.6588 21.7777L16.2597 21.5817L16.2424 21.5612V21.5343L16.749 20.2947L16.7692 20.2713L16.799 20.277L17.1079 20.4432L17.4188 20.5925L17.7318 20.7249L18.0469 20.8402L18.3634 20.9392L18.6827 21.0206L19.0034 21.085L19.3261 21.1331L19.6294 21.1621L19.9348 21.177L20.2416 21.1763L20.5504 21.1614L20.8607 21.1317L21.173 21.0871L21.8025 20.9534L22.2391 20.8246L22.6604 20.6682L23.1233 20.4574L23.5655 20.2126L23.9951 19.931L24.4032 19.6182L24.7988 19.2665L25.1715 18.8859L25.5262 18.4705L25.8566 18.029L25.9024 18L25.9544 18.012L28.9833 20.1503L29 20.1729L28.9896 20.1998L28.1345 21.2364L27.8721 21.5421L27.6001 21.8357L27.0656 22.3516L26.5014 22.8228L25.9003 23.2551L25.2736 23.6408L24.6149 23.9839L23.9347 24.2783L23.2309 24.5252L22.5126 24.7219L21.7803 24.867L21.0391 24.9597L20.2929 25L19.5434 24.9873L18.8042 24.9222L18.0685 24.8047L17.3473 24.6356L16.6345 24.4141L16.2563 24.2684L15.8613 24.0901L15.4484 23.8799L15.018 23.6372L15 23.6167L15.0083 23.5877L15.7461 22.5426L15.7829 22.5171L15.8273 22.5228L16.3916 22.803L16.9656 23.0407L17.5479 23.2367L18.1393 23.3896L18.7327 23.4999L19.3351 23.5686L19.9459 23.5962L20.5657 23.5827L21.182 23.5346L21.7519 23.4589L22.2745 23.357L22.7506 23.2282L23.3524 23.0174L23.9326 22.7712L24.49 22.4881L25.0251 22.169L25.5463 21.8074L26.0454 21.4077L26.5208 20.9711L26.9726 20.4963L26.9928 20.4631L26.999 20.4241L26.9907 20.3859L26.9692 20.3534Z" fill="#D80004"/>
<path d="M22.004 11.3201L21.9852 11.2856L21.9434 11.275L21.9361 11.2769L20.3304 11.724L20.2984 11.7257L20.2677 11.7134L20.2479 11.6887L20.2441 11.6591L20.257 11.6314L22.3169 9.27734L22.3438 9.26068L22.3754 9.27023L24.2306 10.4956L24.2677 10.5285L24.2848 10.5636L24.2819 10.6022L24.2581 10.6429L22.1682 13.2408L22.1445 13.2562L22.1302 13.2331L22.077 12.8822L22.031 12.0987L22.004 11.3201Z" fill="#FB9700"/>
</svg>
