<svg width="39" height="43" viewBox="0 0 39 43" fill="none" xmlns="http://www.w3.org/2000/svg">
<g filter="url(#filter0_d_170_136)">
<path fill-rule="evenodd" clip-rule="evenodd" d="M17.8124 4.013L17.905 4.01275L19.2026 4.01256L19.6749 4.01248C20.9569 4.04998 22.5205 4.21894 23.9689 4.86232C25.0797 5.35568 26.0967 6.12171 26.8447 7.32479C27.5958 8.53268 28.1201 10.253 28.1201 12.7247C28.1201 12.8665 28.1155 13.0042 28.1067 13.138H9.12205C9.18448 7.96107 10.7067 5.86838 12.4672 4.92214C13.4247 4.40754 14.5606 4.1683 15.8263 4.06809C16.1887 4.0394 16.5527 4.02247 16.9187 4.01294L16.9477 4.01296L17.8124 4.013ZM7.12195 13.138C7.18557 7.57285 8.85112 4.59514 11.5204 3.16048C12.8229 2.46041 14.2699 2.18506 15.6685 2.07433C16.0743 2.0422 16.4855 2.02356 16.8953 2.01326L16.8955 2.01305L16.9065 2.01295L16.9081 2.01294C17.438 1.99985 17.9655 2.00062 18.4765 2.00412C18.8398 1.99888 19.278 1.99603 19.7681 2.01212L20.9801 2.01216L21.1413 2.0122L21.1445 2.01221L21.1483 2.01223C21.1492 2.01224 21.2028 2.05014 21.2798 2.12279C22.3892 2.25332 23.6135 2.51604 24.7808 3.03451C26.1941 3.66227 27.5496 4.67076 28.5432 6.26875C29.5338 7.86191 30.1201 9.96923 30.1201 12.7247C30.1201 12.8647 30.1166 13.0024 30.1099 13.138H32.7521C33.8567 13.138 34.7521 14.0334 34.7521 15.138V36.4465C34.7521 37.5511 33.8567 38.4465 32.7521 38.4465H4C2.89543 38.4465 2 37.5511 2 36.4465V15.138C2 14.0334 2.89543 13.138 4 13.138H7.12195ZM19.8649 24.7493C20.7548 24.3631 21.3536 23.6415 21.3536 22.8149C21.3536 21.5816 20.0205 20.5818 18.3761 20.5818C16.7317 20.5818 15.3986 21.5816 15.3986 22.8149C15.3986 23.6415 15.9974 24.3632 16.8874 24.7493V31.0028H19.8649V24.7493Z" fill="url(#paint0_linear_170_136)"/>
</g>
<defs>
<filter id="filter0_d_170_136" x="0" y="0" width="38.7521" height="42.4465" filterUnits="userSpaceOnUse" color-interpolation-filters="sRGB">
<feFlood flood-opacity="0" result="BackgroundImageFix"/>
<feColorMatrix in="SourceAlpha" type="matrix" values="0 0 0 0 0 0 0 0 0 0 0 0 0 0 0 0 0 0 127 0" result="hardAlpha"/>
<feOffset dx="1" dy="1"/>
<feGaussianBlur stdDeviation="1.5"/>
<feComposite in2="hardAlpha" operator="out"/>
<feColorMatrix type="matrix" values="0 0 0 0 0 0 0 0 0 0 0 0 0 0 0 0 0 0 0.25 0"/>
<feBlend mode="normal" in2="BackgroundImageFix" result="effect1_dropShadow_170_136"/>
<feBlend mode="normal" in="SourceGraphic" in2="effect1_dropShadow_170_136" result="shape"/>
</filter>
<linearGradient id="paint0_linear_170_136" x1="31.5" y1="8" x2="2" y2="44" gradientUnits="userSpaceOnUse">
<stop stop-color="#B7BAE3"/>
<stop offset="1" stop-color="#8E8FA8"/>
</linearGradient>
</defs>
</svg>
