<svg width="35" height="35" viewBox="0 0 35 35" fill="none" xmlns="http://www.w3.org/2000/svg">
<g clip-path="url(#clip0_171_81)">
<path fill-rule="evenodd" clip-rule="evenodd" d="M1.09375 13.125C0.930086 13.1251 0.768525 13.1619 0.620973 13.2327C0.473422 13.3035 0.343641 13.4065 0.241198 13.5341C0.138755 13.6618 0.0662606 13.8108 0.0290588 13.9701C-0.00814302 14.1295 -0.00910388 14.2952 0.026247 14.455L3.64 30.7169C3.90974 31.9315 4.58559 33.0178 5.55599 33.7965C6.52638 34.5752 7.7333 34.9997 8.9775 35H21.6475C22.8917 34.9997 24.0986 34.5752 25.069 33.7965C26.0394 33.0178 26.7153 31.9315 26.985 30.7169L27.2716 29.4262C28.9448 29.7392 30.6742 29.3897 32.0947 28.4516C33.5151 27.5135 34.5155 26.0601 34.8845 24.3983C35.2535 22.7365 34.9624 20.9963 34.0725 19.5451C33.1827 18.0939 31.7638 17.0453 30.1153 16.6206L30.5987 14.455C30.6341 14.2952 30.6331 14.1295 30.5959 13.9701C30.5587 13.8108 30.4862 13.6618 30.3838 13.5341C30.2814 13.4065 30.1516 13.3035 30.004 13.2327C29.8565 13.1619 29.6949 13.1251 29.5312 13.125H1.09375ZM28.4375 27.3438C28.206 27.3438 27.9749 27.3256 27.7462 27.2891L29.6428 18.7622C30.6545 19.0552 31.5267 19.7032 32.0992 20.5873C32.6717 21.4714 32.9062 22.5323 32.7597 23.5754C32.6132 24.6185 32.0955 25.5737 31.3016 26.2659C30.5077 26.9581 29.4908 27.3408 28.4375 27.3438ZM5.775 30.2422L2.45656 15.3125H28.1684L24.85 30.2422C24.6882 30.971 24.2828 31.6229 23.7005 32.0902C23.1183 32.5575 22.3941 32.8123 21.6475 32.8125H8.9775C8.23092 32.8123 7.50672 32.5575 6.92447 32.0902C6.34223 31.6229 5.93676 30.971 5.775 30.2422Z" fill="black"/>
<path d="M9.625 1.75011L9.61844 1.75886L9.58781 1.80042C9.42865 2.01944 9.27974 2.24572 9.14156 2.47854C9.02418 2.66518 8.92107 2.86043 8.83313 3.06261C8.77625 3.19386 8.75875 3.26386 8.75219 3.28792V3.29667C8.77741 3.49005 8.84542 3.67537 8.95125 3.83917C9.11531 4.13011 9.34063 4.43417 9.625 4.81261L9.64687 4.83886C9.905 5.18448 10.2156 5.59792 10.4563 6.02667C10.7013 6.46417 10.9375 7.02198 10.9375 7.65636C10.9375 8.06761 10.7953 8.46136 10.6772 8.73698C10.5507 9.03027 10.4031 9.31394 10.2353 9.58573C10.0637 9.87258 9.87903 10.1514 9.68188 10.4214L9.6425 10.476L9.63156 10.4935L9.62719 10.4979C9.45343 10.7303 9.19449 10.8841 8.90732 10.9255C8.62016 10.967 8.32829 10.8926 8.09594 10.7189C7.86358 10.5451 7.70977 10.2862 7.66834 9.99899C7.6269 9.71182 7.70124 9.41996 7.875 9.18761L7.88156 9.17886L7.91219 9.13729C8.07135 8.91828 8.22026 8.69199 8.35844 8.45917C8.47582 8.27253 8.57893 8.07729 8.66687 7.87511C8.72375 7.74386 8.74125 7.67386 8.74781 7.64979C8.72452 7.45357 8.65722 7.26513 8.55094 7.09854C8.34788 6.75916 8.12205 6.43394 7.875 6.12511L7.85312 6.09886C7.55758 5.72109 7.28721 5.3243 7.04375 4.91104C6.74581 4.41826 6.58005 3.85694 6.5625 3.28136C6.5625 2.87011 6.70469 2.47636 6.82281 2.20073C6.95187 1.89886 7.11594 1.60136 7.26469 1.35198C7.43846 1.0665 7.62307 0.787751 7.81812 0.516357L7.87281 0.439795C8.04657 0.20744 8.30551 0.0536274 8.59268 0.0121936C8.87984 -0.0292402 9.17171 0.0450989 9.40406 0.218857C9.63642 0.392615 9.79023 0.651559 9.83166 0.938725C9.8731 1.22589 9.79876 1.51775 9.625 1.75011ZM16.1875 1.75011L16.1809 1.75886L16.1503 1.80042C15.9912 2.01944 15.8422 2.24572 15.7041 2.47854C15.5867 2.66518 15.4836 2.86043 15.3956 3.06261C15.3387 3.19386 15.3212 3.26386 15.3147 3.28792V3.29667C15.3399 3.49005 15.4079 3.67537 15.5138 3.83917C15.6778 4.13011 15.9031 4.43417 16.1875 4.81261L16.2094 4.83886C16.4675 5.18448 16.7781 5.59792 17.0188 6.02667C17.2638 6.46417 17.5 7.02198 17.5 7.65636C17.5 8.06761 17.3578 8.46136 17.2397 8.73698C17.1132 9.03027 16.9656 9.31394 16.7978 9.58573C16.6262 9.87258 16.4415 10.1514 16.2444 10.4214L16.205 10.476L16.1941 10.4935L16.1897 10.4979C16.0159 10.7303 15.757 10.8841 15.4698 10.9255C15.1827 10.967 14.8908 10.8926 14.6584 10.7189C14.4261 10.5451 14.2723 10.2862 14.2308 9.99899C14.1894 9.71182 14.2637 9.41996 14.4375 9.18761L14.4441 9.17886L14.4747 9.13729C14.6338 8.91828 14.7828 8.69199 14.9209 8.45917C15.0383 8.27253 15.1414 8.07729 15.2294 7.87511C15.2863 7.74386 15.3038 7.67386 15.3103 7.64979C15.287 7.45357 15.2197 7.26513 15.1134 7.09854C14.9104 6.75916 14.6846 6.43394 14.4375 6.12511L14.4156 6.09886C14.1201 5.72109 13.8497 5.3243 13.6062 4.91104C13.3083 4.41826 13.1425 3.85694 13.125 3.28136C13.125 2.87011 13.2672 2.47636 13.3853 2.20073C13.5144 1.89886 13.6784 1.60136 13.8272 1.35198C14.001 1.0665 14.1856 0.787751 14.3806 0.516357L14.4353 0.439795C14.6091 0.20744 14.868 0.0536274 15.1552 0.0121936C15.4423 -0.0292402 15.7342 0.0450989 15.9666 0.218857C16.1989 0.392615 16.3527 0.651559 16.3942 0.938725C16.4356 1.22589 16.3613 1.51775 16.1875 1.75011ZM22.75 1.75011L22.7434 1.75886L22.7128 1.80042C22.5537 2.01944 22.4047 2.24572 22.2666 2.47854C22.1492 2.66518 22.0461 2.86043 21.9581 3.06261C21.9012 3.19386 21.8838 3.26386 21.8772 3.28792V3.29667C21.9024 3.49005 21.9704 3.67537 22.0763 3.83917C22.2403 4.13011 22.4656 4.43417 22.75 4.81261L22.7719 4.83886C23.03 5.18448 23.3406 5.59792 23.5812 6.02667C23.8263 6.46417 24.0625 7.02198 24.0625 7.65636C24.0625 8.06761 23.9203 8.46136 23.8022 8.73698C23.6757 9.03027 23.5281 9.31394 23.3603 9.58573C23.1894 9.87254 23.0055 10.1514 22.8091 10.4214L22.7675 10.476L22.7566 10.4935L22.7522 10.4979C22.5784 10.7303 22.3195 10.8841 22.0323 10.9255C21.7452 10.967 21.4533 10.8926 21.2209 10.7189C20.9886 10.5451 20.8348 10.2862 20.7933 9.99899C20.7519 9.71182 20.8262 9.41996 21 9.18761L21.0066 9.17886L21.0372 9.13729C21.1963 8.91828 21.3453 8.69199 21.4834 8.45917C21.6008 8.27253 21.7039 8.07729 21.7919 7.87511C21.8488 7.74386 21.8662 7.67386 21.8728 7.64979C21.8495 7.45357 21.7822 7.26513 21.6759 7.09854C21.4729 6.75916 21.2471 6.43394 21 6.12511L20.9781 6.09886C20.6826 5.72109 20.4122 5.3243 20.1688 4.91104C19.8708 4.41826 19.705 3.85694 19.6875 3.28136C19.6875 2.87011 19.8297 2.47636 19.9478 2.20073C20.0769 1.89886 20.2409 1.60136 20.3897 1.35198C20.5635 1.0665 20.7481 0.787751 20.9431 0.516357L20.9978 0.439795C21.1716 0.20744 21.4305 0.0536274 21.7177 0.0121936C22.0048 -0.0292402 22.2967 0.0450989 22.5291 0.218857C22.7614 0.392615 22.9152 0.651559 22.9567 0.938725C22.9981 1.22589 22.9238 1.51775 22.75 1.75011Z" fill="black"/>
</g>
<defs>
<clipPath id="clip0_171_81">
<rect width="35" height="35" fill="white"/>
</clipPath>
</defs>
</svg>
