<svg width="35" height="35" viewBox="0 0 35 35" fill="none" xmlns="http://www.w3.org/2000/svg">
<path d="M20.7813 5.84493C20.7813 6.13501 20.8965 6.41321 21.1016 6.61833C21.3067 6.82345 21.5849 6.93868 21.875 6.93868C22.1651 6.93868 22.4433 6.82345 22.6484 6.61833C22.8535 6.41321 22.9688 6.13501 22.9688 5.84493V1.84399C22.9688 1.55391 22.8535 1.27571 22.6484 1.0706C22.4433 0.865478 22.1651 0.750244 21.875 0.750244C21.5849 0.750244 21.3067 0.865478 21.1016 1.0706C20.8965 1.27571 20.7813 1.55391 20.7813 1.84399V5.84493ZM30.625 5.92149C30.8242 5.71521 30.9345 5.43893 30.932 5.15215C30.9295 4.86537 30.8145 4.59105 30.6117 4.38826C30.4089 4.18546 30.1346 4.07044 29.8478 4.06794C29.561 4.06545 29.2847 4.1757 29.0784 4.37493L26.25 7.20337C26.1455 7.30426 26.0622 7.42495 26.0049 7.5584C25.9476 7.69184 25.9174 7.83536 25.9161 7.98059C25.9149 8.12581 25.9425 8.26984 25.9975 8.40426C26.0525 8.53867 26.1338 8.66079 26.2364 8.76349C26.3391 8.86618 26.4613 8.9474 26.5957 9.00239C26.7301 9.05739 26.8741 9.08506 27.0194 9.0838C27.1646 9.08254 27.3081 9.05236 27.4415 8.99504C27.575 8.93772 27.6957 8.8544 27.7966 8.74993L30.625 5.92149ZM15.9534 8.74993C16.0543 8.8544 16.175 8.93772 16.3085 8.99504C16.4419 9.05236 16.5854 9.08254 16.7307 9.0838C16.8759 9.08506 17.0199 9.05739 17.1543 9.00239C17.2887 8.9474 17.4109 8.86618 17.5136 8.76349C17.6163 8.66079 17.6975 8.53867 17.7525 8.40426C17.8075 8.26984 17.8351 8.12581 17.8339 7.98059C17.8326 7.83536 17.8024 7.69184 17.7451 7.5584C17.6878 7.42495 17.6045 7.30426 17.5 7.20337L14.6716 4.37493C14.4653 4.1757 14.189 4.06545 13.9022 4.06794C13.6154 4.07044 13.3411 4.18546 13.1383 4.38826C12.9355 4.59105 12.8205 4.86537 12.818 5.15215C12.8155 5.43893 12.9258 5.71521 13.125 5.92149L15.9534 8.74993ZM14.595 14.2187C14.8851 14.2187 15.1633 14.1034 15.3684 13.8983C15.5735 13.6932 15.6888 13.415 15.6888 13.1249C15.6888 12.8349 15.5735 12.5567 15.3684 12.3515C15.1633 12.1464 14.8851 12.0312 14.595 12.0312H10.5941C10.304 12.0312 10.0258 12.1464 9.82067 12.3515C9.61555 12.5567 9.50032 12.8349 9.50032 13.1249C9.50032 13.415 9.61555 13.6932 9.82067 13.8983C10.0258 14.1034 10.304 14.2187 10.5941 14.2187H14.595ZM33.1559 14.2187C33.446 14.2187 33.7242 14.1034 33.9293 13.8983C34.1345 13.6932 34.2497 13.415 34.2497 13.1249C34.2497 12.8349 34.1345 12.5567 33.9293 12.3515C33.7242 12.1464 33.446 12.0312 33.1559 12.0312H29.155C28.8649 12.0312 28.5867 12.1464 28.3816 12.3515C28.1765 12.5567 28.0613 12.8349 28.0613 13.1249C28.0613 13.415 28.1765 13.6932 28.3816 13.8983C28.5867 14.1034 28.8649 14.2187 29.155 14.2187H33.1559ZM29.0784 21.8749C29.1793 21.9794 29.3 22.0627 29.4335 22.12C29.5669 22.1774 29.7104 22.2075 29.8557 22.2088C30.0009 22.2101 30.1449 22.1824 30.2793 22.1274C30.4137 22.0724 30.5359 21.9912 30.6386 21.8885C30.7413 21.7858 30.8225 21.6637 30.8775 21.5293C30.9325 21.3948 30.9601 21.2508 30.9589 21.1056C30.9576 20.9604 30.9274 20.8168 30.8701 20.6834C30.8128 20.55 30.7295 20.4293 30.625 20.3284L27.7966 17.4999C27.6957 17.3955 27.575 17.3121 27.4415 17.2548C27.3081 17.1975 27.1646 17.1673 27.0194 17.1661C26.8741 17.1648 26.7301 17.1925 26.5957 17.2475C26.4613 17.3025 26.3391 17.3837 26.2364 17.4864C26.1338 17.5891 26.0525 17.7112 25.9975 17.8456C25.9425 17.98 25.9149 18.124 25.9161 18.2693C25.9174 18.4145 25.9476 18.558 26.0049 18.6915C26.0622 18.8249 26.1455 18.9456 26.25 19.0465L29.0784 21.8749ZM20.7813 24.4059C20.7813 24.6959 20.8965 24.9741 21.1016 25.1793C21.3067 25.3844 21.5849 25.4996 21.875 25.4996C22.1651 25.4996 22.4433 25.3844 22.6484 25.1793C22.8535 24.9741 22.9688 24.6959 22.9688 24.4059V20.4049C22.9688 20.1149 22.8535 19.8367 22.6484 19.6315C22.4433 19.4264 22.1651 19.3112 21.875 19.3112C21.5849 19.3112 21.3067 19.4264 21.1016 19.6315C20.8965 19.8367 20.7813 20.1149 20.7813 20.4049V24.4059ZM24.8369 13.2562C25.0413 13.0512 25.156 12.7735 25.156 12.484C25.156 12.1945 25.0413 11.9168 24.8369 11.7118L23.2881 10.1631C23.083 9.95801 22.8049 9.84282 22.5148 9.84282C22.2248 9.84282 21.9467 9.95801 21.7416 10.1631L18.9131 12.9937C18.7081 13.1988 18.5929 13.4769 18.5929 13.767C18.5929 14.057 18.7081 14.3351 18.9131 14.5402L20.4619 16.089C20.667 16.294 20.9451 16.4092 21.2352 16.4092C21.5252 16.4092 21.8033 16.294 22.0084 16.089L24.8369 13.2606V13.2562ZM18.2744 19.8187C18.4788 19.6137 18.5935 19.336 18.5935 19.0465C18.5935 18.757 18.4788 18.4793 18.2744 18.2743L16.7256 16.7256C16.5205 16.5205 16.2424 16.4053 15.9523 16.4053C15.6623 16.4053 15.3842 16.5205 15.1791 16.7256L1.41313 30.4937C1.20808 30.6988 1.0929 30.9769 1.0929 31.267C1.0929 31.557 1.20808 31.8351 1.41313 32.0402L2.96188 33.589C3.16699 33.794 3.44514 33.9092 3.73516 33.9092C4.02519 33.9092 4.30334 33.794 4.50844 33.589L18.2744 19.8187Z" fill="black"/>
</svg>
