<svg width="35" height="35" viewBox="0 0 35 35" fill="none" xmlns="http://www.w3.org/2000/svg">
<path d="M24.0625 10.9375C24.0625 12.678 23.3711 14.3472 22.1404 15.5779C20.9097 16.8086 19.2405 17.5 17.5 17.5C15.7595 17.5 14.0903 16.8086 12.8596 15.5779C11.6289 14.3472 10.9375 12.678 10.9375 10.9375C10.9375 9.19702 11.6289 7.52782 12.8596 6.29711C14.0903 5.0664 15.7595 4.375 17.5 4.375C19.2405 4.375 20.9097 5.0664 22.1404 6.29711C23.3711 7.52782 24.0625 9.19702 24.0625 10.9375ZM17.5 15.3125C18.6603 15.3125 19.7731 14.8516 20.5936 14.0311C21.4141 13.2106 21.875 12.0978 21.875 10.9375C21.875 9.77718 21.4141 8.66438 20.5936 7.84391C19.7731 7.02344 18.6603 6.5625 17.5 6.5625C16.3397 6.5625 15.2269 7.02344 14.4064 7.84391C13.5859 8.66438 13.125 9.77718 13.125 10.9375C13.125 12.0978 13.5859 13.2106 14.4064 14.0311C15.2269 14.8516 16.3397 15.3125 17.5 15.3125ZM18.06 30.625C17.8095 29.9145 17.6415 29.1776 17.5591 28.4288H6.5625C6.56469 27.8906 6.89938 26.2719 8.3825 24.7887C9.80875 23.3625 12.4928 21.875 17.5 21.875C18.0688 21.875 18.6083 21.8932 19.1187 21.9297C19.6131 21.1837 20.2037 20.5078 20.8775 19.9216C19.8567 19.7684 18.7308 19.6904 17.5 19.6875C6.5625 19.6875 4.375 26.25 4.375 28.4375C4.375 30.625 6.5625 30.625 6.5625 30.625H18.06Z" fill="black"/>
<path d="M35 27.3438C35 29.3743 34.1934 31.3217 32.7575 32.7575C31.3217 34.1934 29.3743 35 27.3438 35C25.3132 35 23.3658 34.1934 21.93 32.7575C20.4941 31.3217 19.6875 29.3743 19.6875 27.3438C19.6875 25.3132 20.4941 23.3658 21.93 21.93C23.3658 20.4941 25.3132 19.6875 27.3438 19.6875C29.3743 19.6875 31.3217 20.4941 32.7575 21.93C34.1934 23.3658 35 25.3132 35 27.3438ZM27.3438 22.9688C27.0537 22.9688 26.7755 23.084 26.5704 23.2891C26.3652 23.4942 26.25 23.7724 26.25 24.0625V27.3438C26.25 27.6338 26.3652 27.912 26.5704 28.1171C26.7755 28.3223 27.0537 28.4375 27.3438 28.4375C27.6338 28.4375 27.912 28.3223 28.1171 28.1171C28.3223 27.912 28.4375 27.6338 28.4375 27.3438V24.0625C28.4375 23.7724 28.3223 23.4942 28.1171 23.2891C27.912 23.084 27.6338 22.9688 27.3438 22.9688ZM27.3438 31.7188C27.6338 31.7188 27.912 31.6035 28.1171 31.3984C28.3223 31.1933 28.4375 30.9151 28.4375 30.625C28.4375 30.3349 28.3223 30.0567 28.1171 29.8516C27.912 29.6465 27.6338 29.5312 27.3438 29.5312C27.0537 29.5312 26.7755 29.6465 26.5704 29.8516C26.3652 30.0567 26.25 30.3349 26.25 30.625C26.25 30.9151 26.3652 31.1933 26.5704 31.3984C26.7755 31.6035 27.0537 31.7188 27.3438 31.7188Z" fill="black"/>
</svg>
